REM DIRINDEX 1\2,1\3
REM DIRNAME folder01,folder02,folder03
TITLE ""
FILE "2000 phrasesTrack44.mp3" MP3
  TRACK 01 AUDIO
    TITLE "2:cjc143_1817"
    INDEX 01 00:00:00
  TRACK 02 AUDIO
    TITLE "0:"
    INDEX 01 00:00:64
  TRACK 03 AUDIO
    TITLE "2:cjc143_1818"
    INDEX 01 00:01:34
  TRACK 04 AUDIO
    TITLE "0:"
    INDEX 01 00:02:59
  TRACK 05 AUDIO
    TITLE "2:cjc143_1819"
    INDEX 01 00:02:73
  TRACK 06 AUDIO
    TITLE "0:"
    INDEX 01 00:04:58
  TRACK 07 AUDIO
    TITLE "2:cjc143_1820"
    INDEX 01 00:05:01
  TRACK 08 AUDIO
    TITLE "0:"
    INDEX 01 00:06:57
  TRACK 09 AUDIO
    TITLE "2:cjc143_1821"
    INDEX 01 00:06:71
  TRACK 10 AUDIO
    TITLE "0:"
    INDEX 01 00:08:23
  TRACK 11 AUDIO
    TITLE "2:cjc143_1822"
    INDEX 01 00:08:44
  TRACK 12 AUDIO
    TITLE "0:"
    INDEX 01 00:09:73
  TRACK 13 AUDIO
    TITLE "2:cjc143_1823"
    INDEX 01 00:10:14
  TRACK 14 AUDIO
    TITLE "0:"
    INDEX 01 00:11:37
  TRACK 15 AUDIO
    TITLE "2:cjc143_1824"
    INDEX 01 00:11:44
  TRACK 16 AUDIO
    TITLE "0:"
    INDEX 01 00:12:65
  TRACK 17 AUDIO
    TITLE "2:cjc143_1825"
    INDEX 01 00:13:00
  TRACK 18 AUDIO
    TITLE "0:"
    INDEX 01 00:14:54
  TRACK 19 AUDIO
    TITLE "2:cjc143_1826"
    INDEX 01 00:14:60
  TRACK 20 AUDIO
    TITLE "0:"
    INDEX 01 00:16:04
  TRACK 21 AUDIO
    TITLE "2:cjc143_1827"
    INDEX 01 00:16:18
  TRACK 22 AUDIO
    TITLE "0:"
    INDEX 01 00:17:43
  TRACK 23 AUDIO
    TITLE "2:cjc143_1828"
    INDEX 01 00:17:65
  TRACK 24 AUDIO
    TITLE "0:"
    INDEX 01 00:19:48
  TRACK 25 AUDIO
    TITLE "2:cjc143_1829"
    INDEX 01 00:19:58
  TRACK 26 AUDIO
    TITLE "0:"
    INDEX 01 00:21:68
  TRACK 27 AUDIO
    TITLE "2:cjc143_1830"
    INDEX 01 00:22:15
  TRACK 28 AUDIO
    TITLE "0:"
    INDEX 01 00:24:10
  TRACK 29 AUDIO
    TITLE "2:cjc143_1831"
    INDEX 01 00:24:16
  TRACK 30 AUDIO
    TITLE "0:"
    INDEX 01 00:25:52
  TRACK 31 AUDIO
    TITLE "2:cjc143_1832"
    INDEX 01 00:26:26
  TRACK 32 AUDIO
    TITLE "0:"
    INDEX 01 00:27:65
  TRACK 33 AUDIO
    TITLE "2:cjc143_1833"
    INDEX 01 00:27:71
  TRACK 34 AUDIO
    TITLE "0:"
    INDEX 01 00:29:25
  TRACK 35 AUDIO
    TITLE "2:cjc143_1834"
    INDEX 01 00:29:34
  TRACK 36 AUDIO
    TITLE "0:"
    INDEX 01 00:30:71
  TRACK 37 AUDIO
    TITLE "2:cjc143_1835"
    INDEX 01 00:31:18
  TRACK 38 AUDIO
    TITLE "0:"
    INDEX 01 00:32:66
  TRACK 39 AUDIO
    TITLE "2:cjc143_1836"
    INDEX 01 00:33:05
  TRACK 40 AUDIO
    TITLE "0:"
    INDEX 01 00:34:51
  TRACK 41 AUDIO
    TITLE "2:cjc143_1837"
    INDEX 01 00:34:71
  TRACK 42 AUDIO
    TITLE "0:"
    INDEX 01 00:36:54
  TRACK 43 AUDIO
    TITLE "2:cjc143_1838"
    INDEX 01 00:36:70
  TRACK 44 AUDIO
    TITLE "0:"
    INDEX 01 00:38:18
  TRACK 45 AUDIO
    TITLE "2:cjc143_1839"
    INDEX 01 00:38:24
  TRACK 46 AUDIO
    TITLE "0:"
    INDEX 01 00:39:49
  TRACK 47 AUDIO
    TITLE "2:cjc143_1840"
    INDEX 01 00:39:62
  TRACK 48 AUDIO
    TITLE "0:"
    INDEX 01 00:41:08
  TRACK 49 AUDIO
    TITLE "2:cjc143_1841"
    INDEX 01 00:41:14
  TRACK 50 AUDIO
    TITLE "0:"
    INDEX 01 00:43:09
  TRACK 51 AUDIO
    TITLE "2:cjc143_1842"
    INDEX 01 00:43:19
  TRACK 52 AUDIO
    TITLE "0:"
    INDEX 01 00:44:42
  TRACK 53 AUDIO
    TITLE "2:cjc143_1843"
    INDEX 01 00:44:54
  TRACK 54 AUDIO
    TITLE "0:"
    INDEX 01 00:46:11
  TRACK 55 AUDIO
    TITLE "2:cjc143_1844"
    INDEX 01 00:46:31
  TRACK 56 AUDIO
    TITLE "0:"
    INDEX 01 00:48:00
  TRACK 57 AUDIO
    TITLE "2:cjc143_1845"
    INDEX 01 00:48:16
  TRACK 58 AUDIO
    TITLE "0:"
    INDEX 01 00:49:51
  TRACK 59 AUDIO
    TITLE "2:cjc143_1846"
    INDEX 01 00:50:27
  TRACK 60 AUDIO
    TITLE "0:"
    INDEX 01 00:51:62
  TRACK 61 AUDIO
    TITLE "2:cjc143_1847"
    INDEX 01 00:51:71
  TRACK 62 AUDIO
    TITLE "0:"
    INDEX 01 00:53:49
  TRACK 63 AUDIO
    TITLE "2:cjc143_1848"
    INDEX 01 00:53:70
  TRACK 64 AUDIO
    TITLE "0:"
    INDEX 01 00:55:26
  TRACK 65 AUDIO
    TITLE "2:cjc143_1849"
    INDEX 01 00:55:34
  TRACK 66 AUDIO
    TITLE "0:"
    INDEX 01 00:56:67
  TRACK 67 AUDIO
    TITLE "2:cjc143_1850"
    INDEX 01 00:57:09
  TRACK 68 AUDIO
    TITLE "0:"
    INDEX 01 00:59:28
  TRACK 69 AUDIO
    TITLE "2:cjc143_1851"
    INDEX 01 00:59:41
  TRACK 70 AUDIO
    TITLE "0:"
    INDEX 01 01:01:15
  TRACK 71 AUDIO
    TITLE "2:cjc143_1852"
    INDEX 01 01:01:21
  TRACK 72 AUDIO
    TITLE "0:"
    INDEX 01 01:02:46
  TRACK 73 AUDIO
    TITLE "2:cjc143_1853"
    INDEX 01 01:03:00
  TRACK 74 AUDIO
    TITLE "0:"
    INDEX 01 01:04:19
  TRACK 75 AUDIO
    TITLE "2:cjc143_1854"
    INDEX 01 01:04:35
  TRACK 76 AUDIO
    TITLE "0:"
    INDEX 01 01:06:02
  TRACK 77 AUDIO
    TITLE "2:cjc143_1855"
    INDEX 01 01:06:14
  TRACK 78 AUDIO
    TITLE "0:"
    INDEX 01 01:07:49
  TRACK 79 AUDIO
    TITLE "2:cjc143_1856"
    INDEX 01 01:07:74
  TRACK 80 AUDIO
    TITLE "0:"
    INDEX 01 01:09:14
  TRACK 81 AUDIO
    TITLE "2:cjc143_1857"
    INDEX 01 01:09:24
  TRACK 82 AUDIO
    TITLE "0:"
    INDEX 01 01:10:61
  TRACK 83 AUDIO
    TITLE "2:cjc143_1858"
    INDEX 01 01:11:02
  TRACK 84 AUDIO
    TITLE "0:"
    INDEX 01 01:12:28
  TRACK 85 AUDIO
    TITLE "2:cjc143_1859"
    INDEX 01 01:13:02
  TRACK 86 AUDIO
    TITLE "0:"
    INDEX 01 01:15:07
  TRACK 87 AUDIO
    TITLE "2:cjc143_1860"
    INDEX 01 01:15:11
  TRACK 88 AUDIO
    TITLE "0:"
    INDEX 01 01:16:40
  TRACK 89 AUDIO
    TITLE "2:cjc143_1861"
    INDEX 01 01:16:61
  TRACK 90 AUDIO
    TITLE "0:"
    INDEX 01 01:18:33
